<svg xmlns="http://www.w3.org/2000/svg" width="1024" height="1024" viewBox="0 0 1024 1024">
  
  <defs>
    <linearGradient id="bg" x1="0" y1="0" x2="1" y2="1">
      <stop offset="0" stop-color="#2563eb"/>
      <stop offset="1" stop-color="#4f46e5"/>
    </linearGradient>
  </defs>
  <rect x="0" y="0" width="1024" height="1024" rx="232" fill="url(#bg)"/>
  
    <g>
      <path d="M 294.5 268.0 Q 294.5 224.5 338.0 224.5 H 686.0 Q 729.5 224.5 729.5 268.0 V 740.7 L 698.4 775.5 L 667.4 740.7 L 636.3 775.5 L 605.2 740.7 L 574.1 775.5 L 543.1 740.7 L 512.0 775.5 L 480.9 740.7 L 449.9 775.5 L 418.8 740.7 L 387.7 775.5 L 356.6 740.7 L 325.6 775.5 L 294.5 740.7 Z" fill="#ffffff"/>
      <rect x="349.6" y="288.3" width="178.6" height="37.7" rx="18.8" fill="#cbd5e1"/>
      <rect x="349.6" y="384.0" width="201.4" height="23.2" rx="11.6" fill="#e2e8f0"/>
      <rect x="590.0" y="384.0" width="84.4" height="23.2" rx="11.6" fill="#e2e8f0"/>
      <rect x="349.6" y="442.0" width="201.4" height="23.2" rx="11.6" fill="#e2e8f0"/>
      <rect x="590.0" y="442.0" width="84.4" height="23.2" rx="11.6" fill="#e2e8f0"/>
      <rect x="349.6" y="500.0" width="201.4" height="23.2" rx="11.6" fill="#e2e8f0"/>
      <rect x="590.0" y="500.0" width="84.4" height="23.2" rx="11.6" fill="#e2e8f0"/>
      <rect x="349.6" y="566.7" width="129.9" height="31.9" rx="15.9" fill="#94a3b8"/>
      <rect x="564.0" y="562.3" width="110.4" height="40.6" rx="20.3" fill="#2563eb"/>
      <circle cx="720.8" cy="732.0" r="84.1" fill="#10b981" stroke="#ffffff" stroke-width="14.5"/><path d="M 683.1 732.0 l 26.4 26.4 l 47.1 -52.8" fill="none" stroke="#ffffff" stroke-width="18.8" stroke-linecap="round" stroke-linejoin="round"/>
    </g>
</svg>